<svg width="341" height="310" viewBox="0 0 341 310" fill="none" xmlns="http://www.w3.org/2000/svg">
<path fill-rule="evenodd" clip-rule="evenodd" d="M45.9511 257.76C13.3751 219.173 1.36931 165.17 16.1539 116.868C29.9903 71.6636 73.6119 46.6212 116.601 26.9402C158.685 7.67395 205.478 -8.25213 247.59 10.9151C290.877 30.6174 314.718 75.629 325.399 121.974C336.228 168.964 334.917 220.453 304.511 257.902C274.152 295.295 224.065 306.125 175.907 306.098C127.274 306.072 77.3152 294.911 45.9511 257.76Z" stroke="#ED8936" stroke-width="2"/>
<path fill-rule="evenodd" clip-rule="evenodd" d="M47.9346 259.113C11.4216 226.374 -5.61709 177.467 5.02836 131.376C14.9911 88.2412 56.9773 61.0392 98.8054 38.8605C139.752 17.149 185.775 -1.90207 230.211 11.9764C275.888 26.2422 317.886 64.0554 332.891 105.993C348.105 148.513 337.645 197.996 310.179 235.473C282.756 272.893 232.933 287.527 184.089 291.93C134.762 296.377 83.0891 290.635 47.9346 259.113Z" stroke="#ED8936"/>
<path fill-rule="evenodd" clip-rule="evenodd" d="M52.7415 244.572C23.0965 205.907 0.196727 147.298 16.4249 101.223C31.6124 58.1039 89.0792 45.544 131.176 28.318C172.387 11.4548 213.226 8.05987 252.844 28.3511C293.567 49.2087 318.421 79.7569 326.72 125.005C335.135 170.883 331.706 220.602 300.94 255.531C270.221 290.408 221.684 298.78 175.456 296.739C128.771 294.678 81.2837 281.798 52.7415 244.572Z" stroke="#ED8936" stroke-width="2"/>
</svg>
